<svg width="40" height="40" viewBox="0 0 40 40" fill="none" xmlns="http://www.w3.org/2000/svg">
  <path d="M20 5C28.2843 5 35 11.7157 35 20C35 28.2843 28.2843 35 20 35C11.7157 35 5 28.2843 5 20C5 11.7157 11.7157 5 20 5Z" fill="#3B28CC" fill-opacity="0.1"/>
  <path d="M2.5 21C2.5 13.5442 8.54416 7.5 16 7.5C18.6656 7.5 21.1506 8.27361 23.238 9.61053L35.2536 2.50293C36.6666 1.66708 38.4116 2.87158 38.115 4.47547L35.6322 17.9048C35.875 18.8953 36 19.9328 36 21C36 28.4558 29.9558 34.5 22.5 34.5C15.0442 34.5 9 28.4558 9 21C9 20.3138 9.05128 19.64 9.14923 18.983L2.83685 24.3642C1.61483 25.4061 -0.198305 24.1685 0.287893 22.6288L3.63935 11.996C2.90666 14.8021 2.5 17.8344 2.5 21Z" fill="#3730A3"/>
  <path d="M11 25.5C11 25.5 15.0504 22.5022 19 22.5C22.9496 22.5 27 25.5 27 25.5L25.6888 20.2555C25.6888 20.2555 28.6508 17.382 33 16.5C28.6508 15.618 25.6888 12.7445 25.6888 12.7445L27 7.5C27 7.5 22.9496 10.4978 19 10.4978C15.0504 10.4978 11 7.5 11 7.5L12.3112 12.7445C12.3112 12.7445 9.34918 15.618 5 16.5C9.34918 17.382 12.3112 20.2555 12.3112 20.2555L11 25.5Z" fill="#818CF8"/>
  <circle cx="14" cy="12" r="1.5" fill="white"/>
  <circle cx="14" cy="21" r="1.5" fill="white"/>
  <circle cx="23" cy="28" r="1.5" fill="white"/>
</svg>
